<svg xmlns="http://www.w3.org/2000/svg" xmlns:xlink="http://www.w3.org/1999/xlink" width="500" zoomAndPan="magnify" viewBox="0 0 375 374.999991" height="500" preserveAspectRatio="xMidYMid meet" version="1.0"><defs><clipPath id="f87d55ea75"><path d="M 3.214844 128 L 122 128 L 122 248 L 3.214844 248 Z M 3.214844 128 " clip-rule="nonzero"/></clipPath><clipPath id="baa037ac19"><path d="M 148 165 L 371.464844 165 L 371.464844 211 L 148 211 Z M 148 165 " clip-rule="nonzero"/></clipPath></defs><g clip-path="url(#f87d55ea75)"><path fill="#ffcf00" d="M 10.128906 224.542969 C 6.273438 224.542969 3.144531 221.40625 3.144531 217.539062 L 3.144531 197.820312 C 3.144531 193.957031 6.277344 190.820312 10.128906 190.820312 C 10.589844 190.824219 11.042969 190.867188 11.492188 190.960938 C 11.945312 191.050781 12.378906 191.183594 12.804688 191.359375 C 13.226562 191.539062 13.628906 191.753906 14.011719 192.007812 C 14.394531 192.265625 14.746094 192.554688 15.070312 192.878906 C 15.394531 193.203125 15.683594 193.558594 15.9375 193.9375 C 16.195312 194.320312 16.410156 194.722656 16.585938 195.148438 C 16.761719 195.570312 16.894531 196.007812 16.984375 196.457031 C 17.074219 196.910156 17.121094 197.363281 17.121094 197.820312 L 17.121094 217.546875 C 17.121094 221.410156 13.988281 224.546875 10.128906 224.546875 Z M 32.621094 232.105469 C 28.757812 232.105469 25.632812 228.96875 25.632812 225.101562 L 25.632812 190.273438 C 25.632812 186.402344 28.757812 183.273438 32.621094 183.273438 C 36.480469 183.273438 39.609375 186.40625 39.609375 190.273438 L 39.609375 225.101562 C 39.609375 228.972656 36.476562 232.105469 32.621094 232.105469 Z M 55.109375 239.496094 C 51.25 239.496094 48.125 236.363281 48.125 232.496094 L 48.125 182.839844 C 48.125 178.96875 51.257812 175.839844 55.109375 175.839844 C 58.960938 175.839844 62.097656 178.972656 62.097656 182.839844 L 62.097656 232.488281 C 62.097656 236.359375 58.972656 239.488281 55.109375 239.488281 Z M 114.070312 158.394531 L 16.539062 129.15625 C 11.753906 127.664062 7.433594 130.652344 7.433594 135.292969 L 7.433594 184.089844 C 8.324219 183.910156 9.226562 183.820312 10.136719 183.820312 C 11.046875 183.820312 11.949219 183.910156 12.84375 184.089844 L 12.84375 135.328125 C 12.84375 135 12.84375 134.234375 14.035156 134.234375 C 14.363281 134.234375 14.679688 134.285156 14.992188 134.386719 L 112.527344 163.625 C 114.648438 164.261719 116.222656 166.421875 116.222656 167.929688 L 116.222656 230.472656 C 116.222656 230.832031 116.222656 231.558594 115.027344 231.558594 C 114.703125 231.554688 114.386719 231.503906 114.078125 231.402344 L 91.578125 224.671875 L 91.578125 230.316406 L 112.472656 236.601562 C 113.289062 236.851562 114.125 236.976562 114.976562 236.984375 C 115.414062 237.003906 115.84375 236.980469 116.273438 236.910156 C 116.707031 236.839844 117.125 236.726562 117.53125 236.570312 C 117.9375 236.414062 118.324219 236.21875 118.6875 235.984375 C 119.054688 235.746094 119.394531 235.476562 119.703125 235.167969 C 120.011719 234.863281 120.289062 234.527344 120.53125 234.164062 C 120.769531 233.804688 120.972656 233.417969 121.132812 233.015625 C 121.292969 232.609375 121.414062 232.191406 121.488281 231.765625 C 121.5625 231.335938 121.59375 230.902344 121.578125 230.46875 L 121.578125 167.867188 C 121.578125 163.8125 118.261719 159.644531 114.015625 158.375 Z M 77.601562 247.261719 C 73.738281 247.261719 70.613281 244.125 70.613281 240.257812 L 70.613281 175.09375 C 70.613281 171.226562 73.75 168.085938 77.601562 168.085938 C 81.453125 168.085938 84.585938 171.222656 84.585938 175.09375 L 84.585938 240.3125 C 84.585938 244.183594 81.460938 247.316406 77.601562 247.316406 Z M 77.601562 247.261719 " fill-opacity="1" fill-rule="nonzero"/></g><g clip-path="url(#baa037ac19)"><path fill="#ffcf00" d="M 154.046875 192.945312 L 154.046875 209.320312 L 148.972656 209.320312 L 148.972656 165.992188 L 160.878906 165.992188 C 165.507812 165.992188 169.097656 167.121094 171.617188 169.378906 C 174.132812 171.632812 175.4375 174.816406 175.4375 178.925781 C 175.4375 183.03125 174.023438 186.398438 171.191406 189.015625 C 168.355469 191.632812 164.539062 192.945312 159.757812 192.945312 Z M 154.046875 170.585938 L 154.046875 188.351562 L 159.363281 188.351562 C 162.871094 188.351562 165.542969 187.554688 167.382812 185.949219 C 169.222656 184.347656 170.148438 182.085938 170.148438 179.167969 C 170.148438 173.453125 166.765625 170.585938 159.996094 170.585938 Z M 194.425781 210.046875 C 189.855469 210.046875 186.203125 208.601562 183.472656 205.710938 C 180.742188 202.824219 179.378906 198.992188 179.378906 194.21875 C 179.378906 189.023438 180.765625 184.960938 183.640625 182.042969 C 186.515625 179.125 190.285156 177.625 195.117188 177.625 C 199.734375 177.625 203.328125 179.011719 205.917969 181.886719 C 208.511719 184.761719 209.800781 188.664062 209.800781 193.664062 C 209.800781 198.605469 208.402344 202.550781 205.613281 205.523438 C 202.828125 208.496094 199.085938 209.980469 194.425781 209.980469 Z M 194.785156 181.832031 C 191.601562 181.832031 189.089844 182.914062 187.234375 185.082031 C 185.382812 187.246094 184.457031 190.230469 184.457031 194.039062 C 184.457031 197.703125 185.390625 200.59375 187.226562 202.707031 C 189.0625 204.820312 191.609375 205.882812 194.75 205.882812 C 197.957031 205.882812 200.414062 204.84375 202.136719 202.765625 C 203.859375 200.683594 204.722656 197.742188 204.722656 193.914062 C 204.722656 190.046875 203.855469 187.066406 202.136719 184.96875 C 200.417969 182.875 197.957031 181.828125 194.75 181.828125 Z M 255.867188 178.382812 L 246.589844 209.3125 L 241.457031 209.3125 L 235.082031 187.167969 C 234.839844 186.324219 234.679688 185.367188 234.597656 184.292969 L 234.476562 184.292969 C 234.363281 185.238281 234.152344 186.164062 233.84375 187.066406 L 226.925781 209.234375 L 221.972656 209.234375 L 212.605469 178.300781 L 217.800781 178.300781 L 224.210938 201.570312 C 224.410156 202.273438 224.554688 203.195312 224.632812 204.347656 L 224.875 204.347656 C 224.949219 203.378906 225.132812 202.433594 225.417969 201.507812 L 232.546875 178.296875 L 237.078125 178.296875 L 243.488281 201.621094 C 243.6875 202.367188 243.839844 203.292969 243.9375 204.402344 L 244.179688 204.402344 C 244.222656 203.617188 244.386719 202.691406 244.691406 201.621094 L 250.976562 178.296875 L 255.871094 178.296875 Z M 285.585938 195.089844 L 263.707031 195.089844 C 263.785156 198.535156 264.746094 201.195312 266.484375 203.066406 C 268.222656 204.9375 270.691406 205.835938 273.757812 205.835938 C 277.242188 205.835938 280.445312 204.691406 283.367188 202.390625 L 283.367188 207.042969 C 280.648438 209.015625 277.050781 210.003906 272.582031 210.003906 C 268.207031 210.003906 264.777344 208.597656 262.277344 205.789062 C 259.78125 202.980469 258.53125 199.03125 258.53125 193.933594 C 258.53125 189.085938 259.894531 185.195312 262.625 182.164062 C 265.355469 179.132812 268.742188 177.617188 272.792969 177.617188 C 276.839844 177.617188 279.972656 178.929688 282.191406 181.542969 C 284.40625 184.160156 285.515625 187.800781 285.515625 192.453125 L 285.515625 195.054688 Z M 280.507812 190.894531 C 280.484375 188.035156 279.800781 185.800781 278.4375 184.21875 C 277.078125 182.632812 275.1875 181.792969 272.773438 181.792969 C 271.652344 181.773438 270.570312 181.980469 269.535156 182.417969 C 268.5 182.855469 267.59375 183.480469 266.824219 184.296875 C 265.195312 185.96875 264.183594 188.15625 263.800781 190.855469 Z M 308.910156 183.398438 C 308.042969 182.730469 306.832031 182.398438 305.164062 182.398438 C 303.085938 182.398438 301.28125 183.398438 299.863281 185.386719 C 298.441406 187.378906 297.730469 190.097656 297.730469 193.550781 L 297.730469 209.316406 L 292.777344 209.316406 L 292.777344 178.382812 L 297.730469 178.382812 L 297.730469 184.757812 L 297.855469 184.757812 C 298.558594 182.582031 299.636719 180.890625 301.085938 179.667969 C 302.535156 178.441406 304.15625 177.839844 305.953125 177.839844 C 307.242188 177.839844 308.226562 177.980469 308.914062 178.261719 L 308.914062 183.398438 Z M 331.90625 209.320312 L 331.90625 165.992188 L 344.234375 165.992188 C 347.984375 165.992188 350.957031 166.910156 353.148438 168.746094 C 355.339844 170.578125 356.441406 172.964844 356.441406 175.902344 C 356.441406 178.328125 355.773438 180.492188 354.445312 182.3125 C 353.113281 184.132812 351.285156 185.414062 348.945312 186.183594 L 348.945312 186.300781 C 351.867188 186.644531 354.203125 187.742188 355.953125 189.609375 C 357.707031 191.472656 358.582031 193.890625 358.582031 196.871094 C 358.582031 200.578125 357.253906 203.578125 354.597656 205.878906 C 351.941406 208.179688 348.582031 209.320312 344.535156 209.320312 Z M 336.984375 170.59375 L 336.984375 184.554688 L 342.179688 184.554688 C 344.957031 184.554688 347.144531 183.882812 348.734375 182.542969 C 350.324219 181.207031 351.160156 179.316406 351.160156 176.878906 C 351.160156 172.667969 348.390625 170.5625 342.847656 170.5625 Z M 336.984375 189.148438 L 336.984375 204.734375 L 343.910156 204.734375 C 346.890625 204.734375 349.203125 204.027344 350.84375 202.65625 C 352.488281 201.285156 353.269531 199.316406 353.269531 196.859375 C 353.269531 191.742188 349.785156 189.179688 342.816406 189.179688 Z M 371.816406 209.320312 L 366.742188 209.320312 L 366.742188 165.992188 L 371.816406 165.992188 Z M 371.816406 209.320312 " fill-opacity="1" fill-rule="nonzero"/></g></svg>